<svg xmlns="http://www.w3.org/2000/svg" xmlns:xlink="http://www.w3.org/1999/xlink" width="378" zoomAndPan="magnify" viewBox="0 0 283.5 283.500005" height="378" preserveAspectRatio="xMidYMid meet" version="1.0"><defs><g/><clipPath id="80c97a6a45"><path d="M 0.480469 25 L 283 25 L 283 283 L 0.480469 283 Z M 0.480469 25 " clip-rule="nonzero"/></clipPath><clipPath id="24fd01def0"><path d="M 0.222656 0 L 1 0 L 1 1 L 0.222656 1 Z M 0.222656 0 " clip-rule="nonzero"/></clipPath><clipPath id="dd2173689c"><rect x="0" width="1" y="0" height="2"/></clipPath><clipPath id="5a3233c782"><rect x="0" width="283" y="0" height="283"/></clipPath></defs><g transform="matrix(1, 0, 0, 1, 0, 0.000000000000005262)"><g clip-path="url(#5a3233c782)"><g clip-path="url(#80c97a6a45)"><path fill="#ffffff" d="M 257.007812 25.042969 L 239.164062 25.042969 L 239.164062 46.015625 C 239.164062 57.285156 229.773438 66.679688 218.503906 66.679688 L 217.25 66.679688 C 205.980469 66.679688 196.589844 57.285156 196.589844 46.015625 L 196.589844 25.042969 L 84.207031 25.042969 L 84.207031 46.015625 C 84.207031 57.285156 74.816406 66.679688 63.546875 66.679688 L 62.296875 66.679688 C 51.027344 66.679688 41.632812 57.285156 41.632812 46.015625 L 41.632812 25.042969 L 25.984375 25.042969 C 11.894531 25.042969 0.625 36.3125 0.625 50.398438 L 0.625 257.632812 C 0.625 271.71875 11.894531 282.988281 25.984375 282.988281 L 226.015625 282.988281 L 228.832031 282.363281 C 229.460938 282.050781 230.398438 281.425781 231.023438 280.796875 L 277.667969 231.652344 C 277.667969 231.652344 277.667969 231.335938 277.980469 231.335938 C 280.796875 228.519531 282.363281 224.449219 282.363281 220.382812 L 282.363281 50.398438 C 282.363281 36.3125 271.09375 25.042969 257.007812 25.042969 Z M 267.964844 222.574219 L 225.078125 267.335938 L 225.078125 233.527344 C 225.078125 226.953125 230.398438 221.632812 236.972656 221.632812 L 268.589844 221.632812 C 268.277344 221.945312 267.964844 222.257812 267.964844 222.574219 Z M 268.902344 208.171875 L 236.972656 208.171875 C 222.886719 208.171875 211.617188 219.441406 211.617188 233.527344 L 211.617188 269.214844 L 25.984375 269.214844 C 19.410156 269.214844 14.085938 263.894531 14.085938 257.320312 L 14.085938 95.789062 L 268.589844 95.789062 L 268.589844 208.171875 Z M 268.902344 208.171875 " fill-opacity="1" fill-rule="nonzero"/></g><path fill="#ffffff" d="M 63.546875 57.601562 C 70.121094 57.601562 75.441406 52.277344 75.441406 45.703125 L 75.441406 11.894531 C 75.441406 5.320312 70.121094 0 63.546875 0 L 62.296875 0 C 55.722656 0 50.398438 5.320312 50.398438 11.894531 L 50.398438 45.703125 C 50.398438 52.277344 55.722656 57.601562 62.296875 57.601562 Z M 63.546875 57.601562 " fill-opacity="1" fill-rule="nonzero"/><path fill="#ffffff" d="M 218.503906 57.601562 C 225.078125 57.601562 230.398438 52.277344 230.398438 45.703125 L 230.398438 11.894531 C 230.398438 5.320312 225.078125 0 218.503906 0 L 217.25 0 C 210.675781 0 205.355469 5.320312 205.355469 11.894531 L 205.355469 45.703125 C 205.355469 52.277344 210.675781 57.601562 217.25 57.601562 Z M 218.503906 57.601562 " fill-opacity="1" fill-rule="nonzero"/><path fill="#ffffff" d="M 49.148438 123.964844 L 72.9375 123.964844 L 72.9375 147.753906 L 49.148438 147.753906 Z M 49.148438 123.964844 " fill-opacity="1" fill-rule="nonzero"/><path fill="#ffffff" d="M 102.992188 123.964844 L 126.78125 123.964844 L 126.78125 147.753906 L 102.992188 147.753906 Z M 102.992188 123.964844 " fill-opacity="1" fill-rule="nonzero"/><path fill="#ffffff" d="M 156.832031 123.964844 L 180.625 123.964844 L 180.625 147.753906 L 156.832031 147.753906 Z M 156.832031 123.964844 " fill-opacity="1" fill-rule="nonzero"/><path fill="#ffffff" d="M 210.363281 123.964844 L 234.15625 123.964844 L 234.15625 147.753906 L 210.363281 147.753906 Z M 210.363281 123.964844 " fill-opacity="1" fill-rule="nonzero"/><path fill="#ffffff" d="M 49.148438 169.667969 L 72.9375 169.667969 L 72.9375 193.460938 L 49.148438 193.460938 Z M 49.148438 169.667969 " fill-opacity="1" fill-rule="nonzero"/><path fill="#ffffff" d="M 102.992188 169.667969 L 126.78125 169.667969 L 126.78125 193.460938 L 102.992188 193.460938 Z M 102.992188 169.667969 " fill-opacity="1" fill-rule="nonzero"/><path fill="#ffffff" d="M 156.832031 169.667969 L 180.625 169.667969 L 180.625 193.460938 L 156.832031 193.460938 Z M 156.832031 169.667969 " fill-opacity="1" fill-rule="nonzero"/><path fill="#ffffff" d="M 210.363281 169.667969 L 234.15625 169.667969 L 234.15625 193.460938 L 210.363281 193.460938 Z M 210.363281 169.667969 " fill-opacity="1" fill-rule="nonzero"/><path fill="#ffffff" d="M 49.148438 215.6875 L 72.9375 215.6875 L 72.9375 239.476562 L 49.148438 239.476562 Z M 49.148438 215.6875 " fill-opacity="1" fill-rule="nonzero"/><path fill="#ffffff" d="M 102.992188 215.6875 L 126.78125 215.6875 L 126.78125 239.476562 L 102.992188 239.476562 Z M 102.992188 215.6875 " fill-opacity="1" fill-rule="nonzero"/><path fill="#ffffff" d="M 156.832031 215.6875 L 180.625 215.6875 L 180.625 239.476562 L 156.832031 239.476562 Z M 156.832031 215.6875 " fill-opacity="1" fill-rule="nonzero"/><g transform="matrix(1, 0, 0, 1, 282, 0.000000000000005262)"><g clip-path="url(#dd2173689c)"><g clip-path="url(#24fd01def0)"><g fill="#ffffff" fill-opacity="1"><g transform="translate(0.444411, 0.898543)"><g><path d="M 0.21875 0.015625 C 0.164062 0.015625 0.125 0 0.09375 -0.03125 C 0.0625 -0.0625 0.046875 -0.101562 0.046875 -0.15625 C 0.046875 -0.1875 0.0507812 -0.210938 0.0625 -0.234375 C 0.0820312 -0.253906 0.101562 -0.269531 0.125 -0.28125 C 0.15625 -0.300781 0.195312 -0.3125 0.25 -0.3125 C 0.28125 -0.320312 0.304688 -0.328125 0.328125 -0.328125 C 0.347656 -0.335938 0.363281 -0.347656 0.375 -0.359375 C 0.382812 -0.367188 0.390625 -0.382812 0.390625 -0.40625 C 0.390625 -0.425781 0.378906 -0.441406 0.359375 -0.453125 C 0.335938 -0.472656 0.3125 -0.484375 0.28125 -0.484375 C 0.238281 -0.484375 0.207031 -0.472656 0.1875 -0.453125 C 0.164062 -0.441406 0.144531 -0.425781 0.125 -0.40625 L 0.109375 -0.40625 L 0.078125 -0.453125 C 0.0976562 -0.484375 0.125 -0.503906 0.15625 -0.515625 C 0.1875 -0.535156 0.226562 -0.546875 0.28125 -0.546875 C 0.34375 -0.546875 0.390625 -0.53125 0.421875 -0.5 C 0.453125 -0.476562 0.46875 -0.441406 0.46875 -0.390625 L 0.46875 -0.109375 C 0.46875 -0.078125 0.476562 -0.0625 0.5 -0.0625 C 0.507812 -0.0625 0.519531 -0.0625 0.53125 -0.0625 L 0.546875 -0.015625 C 0.535156 -0.00390625 0.523438 0 0.515625 0 C 0.503906 0 0.492188 0 0.484375 0 C 0.453125 0 0.429688 -0.00390625 0.421875 -0.015625 C 0.410156 -0.0234375 0.398438 -0.046875 0.390625 -0.078125 L 0.375 -0.078125 C 0.363281 -0.046875 0.34375 -0.0195312 0.3125 0 C 0.289062 0.0078125 0.257812 0.015625 0.21875 0.015625 Z M 0.234375 -0.046875 C 0.265625 -0.046875 0.289062 -0.0507812 0.3125 -0.0625 C 0.332031 -0.0820312 0.347656 -0.101562 0.359375 -0.125 C 0.378906 -0.15625 0.390625 -0.1875 0.390625 -0.21875 L 0.390625 -0.28125 L 0.375 -0.296875 C 0.363281 -0.285156 0.347656 -0.273438 0.328125 -0.265625 C 0.316406 -0.265625 0.296875 -0.257812 0.265625 -0.25 C 0.234375 -0.25 0.207031 -0.242188 0.1875 -0.234375 C 0.164062 -0.222656 0.148438 -0.210938 0.140625 -0.203125 C 0.140625 -0.191406 0.140625 -0.175781 0.140625 -0.15625 C 0.140625 -0.125 0.144531 -0.0976562 0.15625 -0.078125 C 0.175781 -0.0546875 0.203125 -0.046875 0.234375 -0.046875 Z M 0.234375 -0.046875 "/></g></g></g></g></g></g></g></g></svg>